<svg width="457" height="187" viewBox="0 0 457 187" fill="none" xmlns="http://www.w3.org/2000/svg">
<rect width="456.45" height="187" rx="17" fill="url(#paint0_linear_52_497)"/>
<path d="M332.259 122.289C329.791 122.592 327.494 123.712 325.735 125.471C321.372 129.852 320.959 146.078 320.959 146.078C320.959 146.078 337.181 145.665 341.547 141.293C343.311 139.535 344.432 137.233 344.728 134.759M419.457 48.3956C419.415 48.1922 419.316 48.0051 419.171 47.8563C419.027 47.7075 418.842 47.6031 418.64 47.5555C405.176 44.2597 374.072 56.0032 357.203 72.8739C354.196 75.8582 351.455 79.0985 349.009 82.5582C343.81 82.0873 338.61 82.4838 334.183 84.4167C321.681 89.918 318.044 104.286 317.029 110.454C316.974 110.792 316.997 111.138 317.098 111.465C317.198 111.793 317.372 112.093 317.607 112.342C317.841 112.591 318.13 112.783 318.451 112.902C318.771 113.022 319.115 113.066 319.455 113.031L339.529 110.825C339.542 112.341 339.633 113.854 339.801 115.36C339.906 116.401 340.37 117.373 341.113 118.108L348.886 125.887C349.621 126.632 350.593 127.096 351.634 127.201C353.13 127.367 354.633 127.458 356.138 127.473L353.937 147.545C353.902 147.886 353.947 148.229 354.066 148.55C354.185 148.87 354.377 149.158 354.626 149.393C354.874 149.627 355.173 149.802 355.5 149.902C355.827 150.002 356.172 150.026 356.509 149.971C362.675 148.98 377.06 145.34 382.525 132.831C384.456 128.395 384.852 123.218 384.407 118.039C387.874 115.594 391.121 112.85 394.11 109.839C411.041 92.9883 422.701 62.5428 419.457 48.3956ZM379.061 88.0099C377.582 86.5302 376.575 84.6448 376.167 82.5921C375.759 80.5395 375.968 78.4118 376.768 76.4782C377.568 74.5446 378.923 72.8918 380.662 71.729C382.401 70.5662 384.445 69.9456 386.536 69.9456C388.627 69.9456 390.671 70.5662 392.41 71.729C394.149 72.8918 395.504 74.5446 396.304 76.4782C397.104 78.4118 397.314 80.5395 396.905 82.5921C396.497 84.6448 395.49 86.5302 394.011 88.0099C393.03 88.9937 391.865 89.7742 390.583 90.3067C389.3 90.8393 387.925 91.1134 386.536 91.1134C385.147 91.1134 383.772 90.8393 382.49 90.3067C381.207 89.7742 380.042 88.9937 379.061 88.0099Z" stroke="url(#paint1_linear_52_497)" stroke-width="7.65" stroke-linecap="round" stroke-linejoin="round"/>
<path d="M54.4801 73.0226H45.961V76.1043H52.9735V80.9938H45.961V84.1577H54.4801V89.6499H40.1675V67.5715H54.4801V73.0226ZM70.9567 67.5441H76.8324V89.869H74.9698L63.6155 78.8709V89.6636H57.7535V67.3523H59.6436L70.9567 78.3094V67.5441ZM95.8018 67.5715V73.05H90.515V89.6499H84.6393V73.05H79.3389V67.5715H95.8018ZM116.949 89.6499H110.087L104.184 80.0625V89.6499H98.3219L98.2945 67.5715H106.677C111.443 67.5715 114.853 70.7901 114.853 74.7483C114.853 77.5013 113.196 79.8023 111.032 80.7884L116.949 89.6499ZM104.157 72.8446V77.2685L106.553 77.2822C107.8 77.2958 108.937 76.4193 108.937 75.0634C108.937 73.6937 107.786 72.8446 106.553 72.8446H104.157ZM133.371 73.0226H124.852V76.1043H131.864V80.9938H124.852V84.1577H133.371V89.6499H119.058V67.5715H133.371V73.0226ZM159.161 76.9671C159.27 77.7067 159.339 78.4189 159.339 79.1175C159.339 85.8286 154.271 90.1704 147.998 90.1704C140.986 90.1704 135.685 84.9384 135.685 78.6381C135.685 72.3378 141 67.0373 147.848 67.0373C150.655 67.0784 153.901 68.27 155.723 69.9546L152.477 74.4059C151.244 73.2554 149.478 72.5158 147.848 72.5158C144.561 72.5158 141.671 75.214 141.671 78.6244C141.671 81.7198 144.15 84.7329 148.231 84.7329C150.902 84.7329 152.806 83.4455 152.888 81.3363H147.834V76.9671H159.161ZM175.459 89.6499L174.35 87.075H166.105L164.982 89.6499H158.572L168.83 67.2976H171.611L181.883 89.6499H175.459ZM167.954 82.7881H172.487L170.227 77.5561L167.954 82.7881ZM211.316 89.6499H204.454L198.551 80.0625V89.6499H192.689L192.662 67.5715H201.044C205.81 67.5715 209.221 70.7901 209.221 74.7483C209.221 77.5013 207.564 79.8023 205.4 80.7884L211.316 89.6499ZM198.524 72.8446V77.2685L200.921 77.2822C202.167 77.2958 203.304 76.4193 203.304 75.0634C203.304 73.6937 202.154 72.8446 200.921 72.8446H198.524ZM228.081 61.1342L224.821 65.7499H221.137L223.492 61.1342H228.081ZM228.683 89.6499L227.574 87.075H219.329L218.206 89.6499H211.796L222.054 67.2976H224.835L235.107 89.6499H228.683ZM221.178 82.7881H225.711L223.451 77.5561L221.178 82.7881ZM237.312 89.6499V67.5715H245.653C250.2 67.5715 253.994 70.9956 253.994 75.3099C253.994 79.5694 250.282 83.1442 245.653 83.1442H243.174V89.6499H237.312ZM245.653 77.7478C247.228 77.7615 248.337 76.6932 248.337 75.3373C248.337 73.995 247.214 72.9815 245.653 72.9815H243.174V77.7341L245.653 77.7478ZM256.487 89.6499V67.5715H262.349V89.6499H256.487ZM273.388 67.5715C280.893 67.5441 285.482 71.7352 285.482 78.6381C285.482 85.4862 280.893 89.6499 273.388 89.6499H266.184V67.5852L273.388 67.5715ZM273.292 84.1303C277.209 84.1303 279.606 82.0485 279.606 78.6244C279.606 75.1592 277.195 73.05 273.237 73.05H271.895V84.1303H273.292ZM301.602 89.6499L300.493 87.075H292.248L291.125 89.6499H284.715L294.973 67.2976H297.754L308.026 89.6499H301.602ZM294.097 82.7881H298.63L296.37 77.5561L294.097 82.7881Z" fill="#292929"/>
<path d="M39.4121 123.55V110.169H44.4673C47.2231 110.169 49.5225 112.244 49.5225 114.859C49.5225 117.44 47.2729 119.607 44.4673 119.607H42.9648V123.55H39.4121ZM44.4673 116.336C45.4219 116.345 46.0942 115.697 46.0942 114.875C46.0942 114.062 45.4136 113.448 44.4673 113.448H42.9648V116.328L44.4673 116.336ZM57.79 123.55L57.1177 121.989H52.1206L51.4399 123.55H47.5552L53.7725 110.003H55.4575L61.6831 123.55H57.79ZM53.2412 119.391H55.9888L54.6191 116.22L53.2412 119.391ZM74.3252 123.55H70.1665L66.5889 117.739V123.55H63.0361L63.0195 110.169H68.0996C70.9883 110.169 73.0552 112.12 73.0552 114.519C73.0552 116.187 72.0508 117.582 70.7393 118.179L74.3252 123.55ZM66.5723 113.365V116.046L68.0249 116.054C68.7803 116.062 69.4692 115.531 69.4692 114.709C69.4692 113.879 68.772 113.365 68.0249 113.365H66.5723ZM84.8506 123.55L84.1782 121.989H79.1812L78.5005 123.55H74.6157L80.833 110.003H82.5181L88.7437 123.55H84.8506ZM80.3018 119.391H83.0493L81.6797 116.22L80.3018 119.391ZM104.44 110.169V113.489H101.236V123.55H97.6753V113.489H94.4629V110.169H104.44ZM112.044 123.89C107.885 123.89 104.706 120.86 104.706 116.876C104.706 112.858 107.894 109.812 112.052 109.812C116.211 109.812 119.398 112.858 119.398 116.876C119.398 120.86 116.211 123.89 112.044 123.89ZM112.052 120.495C114.177 120.495 115.804 118.91 115.804 116.851C115.804 114.784 114.177 113.19 112.052 113.19C109.927 113.19 108.3 114.784 108.3 116.851C108.3 118.91 109.927 120.495 112.052 120.495ZM125.508 110.169C130.057 110.152 132.837 112.692 132.837 116.876C132.837 121.026 130.057 123.55 125.508 123.55H121.142V110.177L125.508 110.169ZM125.45 120.205C127.824 120.205 129.276 118.943 129.276 116.868C129.276 114.768 127.815 113.489 125.417 113.489H124.603V120.205H125.45ZM141.346 123.89C137.187 123.89 134.008 120.86 134.008 116.876C134.008 112.858 137.195 109.812 141.354 109.812C145.513 109.812 148.7 112.858 148.7 116.876C148.7 120.86 145.513 123.89 141.346 123.89ZM141.354 120.495C143.479 120.495 145.106 118.91 145.106 116.851C145.106 114.784 143.479 113.19 141.354 113.19C139.229 113.19 137.602 114.784 137.602 116.851C137.602 118.91 139.229 120.495 141.354 120.495ZM162.396 123.89C158.238 123.89 155.059 120.86 155.059 116.876C155.059 112.858 158.246 109.812 162.405 109.812C166.563 109.812 169.751 112.858 169.751 116.876C169.751 120.86 166.563 123.89 162.396 123.89ZM162.405 120.495C164.53 120.495 166.157 118.91 166.157 116.851C166.157 114.784 164.53 113.19 162.405 113.19C160.28 113.19 158.653 114.784 158.653 116.851C158.653 118.91 160.28 120.495 162.405 120.495ZM176.69 123.55V110.169H181.746C184.501 110.169 186.801 112.244 186.801 114.859C186.801 117.44 184.551 119.607 181.746 119.607H180.243V123.55H176.69ZM181.746 116.336C182.7 116.345 183.373 115.697 183.373 114.875C183.373 114.062 182.692 113.448 181.746 113.448H180.243V116.328L181.746 116.336ZM195.068 123.55L194.396 121.989H189.399L188.718 123.55H184.833L191.051 110.003H192.736L198.961 123.55H195.068ZM190.52 119.391H193.267L191.897 116.22L190.52 119.391ZM202.913 109.065H200.68L202.107 106.268H204.888L202.913 109.065ZM200.298 123.55V110.169H203.851V123.55H200.298ZM210.35 123.732C208.15 123.732 206.15 122.761 205.478 121.284L207.627 119.175C208.184 119.997 209.221 120.495 210.342 120.495C211.097 120.495 211.836 120.221 211.836 119.673C211.836 118.984 210.466 118.378 209.155 117.797C207.461 117.067 206.009 115.955 206.009 113.938C206.009 111.622 208.208 109.97 210.749 109.97C212.791 109.97 214.384 110.933 214.907 112.252L212.857 114.228C212.458 113.522 211.429 113.215 210.79 113.215C210.06 113.215 209.537 113.589 209.537 114.045C209.537 114.66 210.483 114.859 211.927 115.465C214.019 116.345 215.405 117.623 215.405 119.599C215.405 122.147 213.031 123.732 210.35 123.732Z" fill="#292929"/>
<defs>
<linearGradient id="paint0_linear_52_497" x1="0" y1="93.5" x2="456.45" y2="93.5" gradientUnits="userSpaceOnUse">
<stop stop-color="white"/>
<stop offset="1" stop-color="#EAAADC"/>
</linearGradient>
<linearGradient id="paint1_linear_52_497" x1="317" y1="98.5" x2="420" y2="98.5" gradientUnits="userSpaceOnUse">
<stop stop-color="#E40699"/>
<stop offset="1" stop-color="#9429FF"/>
</linearGradient>
</defs>
</svg>
