<svg width="457" height="187" viewBox="0 0 457 187" fill="none" xmlns="http://www.w3.org/2000/svg">
<rect width="456.45" height="187" rx="17" fill="url(#paint0_linear_52_492)"/>
<path d="M366.891 128V84.0784M404.484 128H355.381C354.75 128 354.144 127.748 353.697 127.298C353.251 126.849 353 126.24 353 125.604V86.4741C353 85.8387 353.251 85.2293 353.697 84.78C354.144 84.3307 354.75 84.0783 355.381 84.0783H366.367C367.738 84.0783 369.085 83.7212 370.278 83.0418C371.471 82.3624 372.468 81.3838 373.174 80.2012L383.929 62.1654C384.741 60.8033 386.018 59.7862 387.523 59.3055C389.027 58.8249 390.654 58.9137 392.098 59.5553C393.542 60.197 394.703 61.3472 395.363 62.7897C396.022 64.2321 396.136 65.8675 395.681 67.3881L391.625 80.9958C391.519 81.3532 391.497 81.7307 391.561 82.0981C391.625 82.4655 391.774 82.8127 391.995 83.1121C392.217 83.4114 392.504 83.6547 392.836 83.8224C393.167 83.9902 393.532 84.0778 393.903 84.0783H412.065C413.285 84.0787 414.489 84.3621 415.582 84.9065C416.676 85.4509 417.63 86.2417 418.371 87.2173C419.111 88.193 419.618 89.3273 419.853 90.5322C420.087 91.737 420.041 92.9799 419.721 94.1643L412.14 122.114C411.682 123.804 410.685 125.295 409.303 126.358C407.92 127.422 406.224 127.999 404.484 128Z" stroke="url(#paint1_linear_52_492)" stroke-width="7.65" stroke-linecap="round"/>
<path d="M55.4251 87.9502L54.3157 85.3753H46.0706L44.9475 87.9502H38.5376L48.7961 65.5979H51.5765L61.8487 87.9502H55.4251ZM47.9196 81.0884H52.4531L50.1932 75.8564L47.9196 81.0884ZM64.0538 87.9502V65.8718H72.3949C76.942 65.8718 80.7359 69.2958 80.7359 73.6102C80.7359 77.8697 77.0242 81.4445 72.3949 81.4445H69.9158V87.9502H64.0538ZM72.3949 76.0481C73.9699 76.0618 75.0793 74.9935 75.0793 73.6376C75.0793 72.2953 73.9562 71.2818 72.3949 71.2818H69.9158V76.0344L72.3949 76.0481ZM97.5412 71.3229H89.0221V74.4046H96.0346V79.2941H89.0221V82.458H97.5412V87.9502H83.2286V65.8718H97.5412V71.3229ZM114.018 65.8444H119.894V88.1693H118.031L106.677 77.1712V87.9639H100.815V65.6526H102.705L114.018 76.6097V65.8444ZM139 87.9502L137.891 85.3753H129.645L128.522 87.9502H122.112L132.371 65.5979H135.151L145.423 87.9502H139ZM131.494 81.0884H136.028L133.768 75.8564L131.494 81.0884ZM153.833 88.2515C150.203 88.2515 146.903 86.649 145.793 84.2111L149.341 80.7323C150.258 82.0882 151.97 82.91 153.819 82.91C155.066 82.91 156.285 82.458 156.285 81.554C156.285 80.4172 154.025 79.4174 151.861 78.4587C149.067 77.2534 146.67 75.4181 146.67 72.0899C146.67 68.2686 150.299 65.5431 154.49 65.5431C157.86 65.5431 160.489 67.1318 161.352 69.3095L157.969 72.5693C157.312 71.4051 155.614 70.8983 154.559 70.8983C153.354 70.8983 152.491 71.5146 152.491 72.2679C152.491 73.2815 154.052 73.6102 156.435 74.61C159.887 76.0618 162.174 78.171 162.174 81.4308C162.174 85.6355 158.257 88.2515 153.833 88.2515ZM184.581 88.5117C177.719 88.5117 172.474 83.5126 172.474 76.9384C172.474 70.3094 177.733 65.2828 184.595 65.2828C191.457 65.2828 196.716 70.3094 196.716 76.9384C196.716 83.5126 191.457 88.5117 184.581 88.5117ZM184.595 82.91C188.101 82.91 190.786 80.294 190.786 76.8973C190.786 73.4869 188.101 70.8572 184.595 70.8572C181.089 70.8572 178.404 73.4869 178.404 76.8973C178.404 80.294 181.089 82.91 184.595 82.91ZM229.478 65.6663H231.833V87.9502H225.971V79.1983L220.027 87.5804H219.986L214.028 79.1983V87.9502H208.166V65.6663H210.522L220 78.6504L229.478 65.6663ZM249.981 71.3229H241.462V74.4046H248.474V79.2941H241.462V82.458H249.981V87.9502H235.668V65.8718H249.981V71.3229ZM259.116 82.4443H267.567V87.9502H253.254V65.8718H259.116V82.4443ZM282.496 65.8718H288.344V87.9502H282.496V79.6365H275.935V87.9502H270.073V65.8718H275.935V74.158H282.496V65.8718ZM303.328 88.5117C296.466 88.5117 291.22 83.5126 291.22 76.9384C291.22 70.3094 296.48 65.2828 303.342 65.2828C310.204 65.2828 315.463 70.3094 315.463 76.9384C315.463 83.5126 310.204 88.5117 303.328 88.5117ZM303.342 82.91C306.848 82.91 309.532 80.294 309.532 76.8973C309.532 73.4869 306.848 70.8572 303.342 70.8572C299.835 70.8572 297.151 73.4869 297.151 76.8973C297.151 80.294 299.835 82.91 303.342 82.91ZM336.993 87.9502H330.132L324.229 78.3628V87.9502H318.367L318.339 65.8718H326.721C331.488 65.8718 334.898 69.0904 334.898 73.0486C334.898 75.8016 333.241 78.1026 331.077 79.0887L336.993 87.9502ZM324.201 71.1448V75.5687L326.598 75.5824C327.844 75.5961 328.981 74.7196 328.981 73.3636C328.981 71.994 327.831 71.1448 326.598 71.1448H324.201Z" fill="#292929"/>
<path d="M53.5732 121.277L52.3613 124.44C49.9375 124.266 48.3853 123.27 47.1733 122.132C46.8413 122.174 46.5093 122.19 46.1689 122.19C42.0103 122.19 38.8311 119.161 38.8311 115.176C38.8311 111.159 42.0186 108.112 46.1772 108.112C50.3359 108.112 53.5234 111.159 53.5234 115.176C53.5234 117.592 52.353 119.65 50.5103 120.904C51.4233 121.12 52.4941 121.252 53.5732 121.277ZM42.4253 115.151C42.4253 117.21 44.0522 118.795 46.1772 118.795C48.3022 118.795 49.9292 117.21 49.9292 115.151C49.9292 113.084 48.3022 111.491 46.1772 111.491C44.0522 111.491 42.4253 113.084 42.4253 115.151ZM60.7866 122.224C57.7236 122.224 55.2334 120.057 55.2334 116.986V108.469H58.811V116.978C58.811 118.09 59.7656 118.829 60.7783 118.829C61.7827 118.829 62.7622 118.073 62.7622 116.978V108.469H66.3398V116.986C66.3398 120.057 63.8496 122.224 60.7866 122.224ZM76.5498 121.85L75.8774 120.29H70.8804L70.1997 121.85H66.3149L72.5322 108.303H74.2173L80.4429 121.85H76.5498ZM72.001 117.691H74.7485L73.3789 114.521L72.001 117.691ZM85.332 118.513H90.4536V121.85H81.7793V108.469H85.332V118.513ZM91.9727 121.85V108.469H95.5254V121.85H91.9727ZM102.216 108.469C106.765 108.453 109.545 110.993 109.545 115.176C109.545 119.327 106.765 121.85 102.216 121.85H97.8496V108.478L102.216 108.469ZM102.158 118.505C104.532 118.505 105.984 117.243 105.984 115.168C105.984 113.068 104.523 111.79 102.125 111.79H101.311V118.505H102.158ZM119.315 121.85L118.643 120.29H113.646L112.965 121.85H109.081L115.298 108.303H116.983L123.208 121.85H119.315ZM114.767 117.691H117.514L116.145 114.521L114.767 117.691ZM128.911 108.469C133.46 108.453 136.241 110.993 136.241 115.176C136.241 119.327 133.46 121.85 128.911 121.85H124.545V108.478L128.911 108.469ZM128.853 118.505C131.227 118.505 132.68 117.243 132.68 115.168C132.68 113.068 131.219 111.79 128.82 111.79H128.006V118.505H128.853ZM146.667 111.773H141.503V113.641H145.753V116.604H141.503V118.521H146.667V121.85H137.992V108.469H146.667V111.773ZM161.849 108.453H165.41V121.983H164.281L157.399 115.317V121.858H153.847V108.336H154.992L161.849 114.977V108.453ZM174.499 122.19C170.34 122.19 167.161 119.161 167.161 115.176C167.161 111.159 170.349 108.112 174.507 108.112C178.666 108.112 181.854 111.159 181.854 115.176C181.854 119.161 178.666 122.19 174.499 122.19ZM174.507 118.795C176.632 118.795 178.259 117.21 178.259 115.151C178.259 113.084 176.632 111.491 174.507 111.491C172.382 111.491 170.755 113.084 170.755 115.151C170.755 117.21 172.382 118.795 174.507 118.795ZM187.772 122.033C185.572 122.033 183.572 121.062 182.899 119.584L185.049 117.476C185.605 118.297 186.643 118.795 187.764 118.795C188.519 118.795 189.258 118.521 189.258 117.974C189.258 117.285 187.888 116.679 186.577 116.098C184.883 115.367 183.431 114.255 183.431 112.238C183.431 109.922 185.63 108.27 188.17 108.27C190.212 108.27 191.806 109.233 192.329 110.553L190.279 112.528C189.88 111.823 188.851 111.516 188.212 111.516C187.481 111.516 186.958 111.889 186.958 112.346C186.958 112.96 187.905 113.159 189.349 113.765C191.441 114.645 192.827 115.923 192.827 117.899C192.827 120.447 190.453 122.033 187.772 122.033ZM199.65 121.85V108.469H204.706C207.461 108.469 209.761 110.544 209.761 113.159C209.761 115.741 207.511 117.907 204.706 117.907H203.203V121.85H199.65ZM204.706 114.637C205.66 114.645 206.333 113.998 206.333 113.176C206.333 112.362 205.652 111.748 204.706 111.748H203.203V114.628L204.706 114.637ZM222.577 121.85H218.418L214.841 116.04V121.85H211.288L211.271 108.469H216.352C219.24 108.469 221.307 110.42 221.307 112.819C221.307 114.487 220.303 115.882 218.991 116.479L222.577 121.85ZM214.824 111.665V114.346L216.277 114.354C217.032 114.363 217.721 113.832 217.721 113.01C217.721 112.18 217.024 111.665 216.277 111.665H214.824ZM230.612 122.19C226.454 122.19 223.274 119.161 223.274 115.176C223.274 111.159 226.462 108.112 230.621 108.112C234.779 108.112 237.967 111.159 237.967 115.176C237.967 119.161 234.779 122.19 230.612 122.19ZM230.621 118.795C232.746 118.795 234.373 117.21 234.373 115.151C234.373 113.084 232.746 111.491 230.621 111.491C228.496 111.491 226.869 113.084 226.869 115.151C226.869 117.21 228.496 118.795 230.621 118.795ZM244.076 108.469C248.625 108.453 251.406 110.993 251.406 115.176C251.406 119.327 248.625 121.85 244.076 121.85H239.71V108.478L244.076 108.469ZM244.018 118.505C246.392 118.505 247.845 117.243 247.845 115.168C247.845 113.068 246.384 111.79 243.985 111.79H243.171V118.505H244.018ZM258.594 122.224C255.531 122.224 253.041 120.057 253.041 116.986V108.469H256.619V116.978C256.619 118.09 257.573 118.829 258.586 118.829C259.59 118.829 260.57 118.073 260.57 116.978V108.469H264.147V116.986C264.147 120.057 261.657 122.224 258.594 122.224ZM275.52 108.469V111.79H272.315V121.85H268.754V111.79H265.542V108.469H275.52ZM283.123 122.19C278.964 122.19 275.785 119.161 275.785 115.176C275.785 111.159 278.973 108.112 283.131 108.112C287.29 108.112 290.478 111.159 290.478 115.176C290.478 119.161 287.29 122.19 283.123 122.19ZM283.131 118.795C285.256 118.795 286.883 117.21 286.883 115.151C286.883 113.084 285.256 111.491 283.131 111.491C281.006 111.491 279.379 113.084 279.379 115.151C279.379 117.21 281.006 118.795 283.131 118.795ZM296.396 122.033C294.196 122.033 292.196 121.062 291.523 119.584L293.673 117.476C294.229 118.297 295.267 118.795 296.388 118.795C297.143 118.795 297.882 118.521 297.882 117.974C297.882 117.285 296.512 116.679 295.201 116.098C293.507 115.367 292.055 114.255 292.055 112.238C292.055 109.922 294.254 108.27 296.794 108.27C298.836 108.27 300.43 109.233 300.953 110.553L298.903 112.528C298.504 111.823 297.475 111.516 296.836 111.516C296.105 111.516 295.583 111.889 295.583 112.346C295.583 112.96 296.529 113.159 297.973 113.765C300.065 114.645 301.451 115.923 301.451 117.899C301.451 120.447 299.077 122.033 296.396 122.033Z" fill="#292929"/>
<defs>
<linearGradient id="paint0_linear_52_492" x1="0" y1="93.5" x2="456.45" y2="93.5" gradientUnits="userSpaceOnUse">
<stop stop-color="white"/>
<stop offset="1" stop-color="#EAAADC"/>
</linearGradient>
<linearGradient id="paint1_linear_52_492" x1="353" y1="106.858" x2="416.427" y2="105.082" gradientUnits="userSpaceOnUse">
<stop stop-color="#E40699"/>
<stop offset="1" stop-color="#9429FF"/>
</linearGradient>
</defs>
</svg>
