<svg width="457" height="187" viewBox="0 0 457 187" fill="none" xmlns="http://www.w3.org/2000/svg">
<rect width="456.45" height="187" rx="17" fill="url(#paint0_linear_52_502)"/>
<path d="M353.625 92.5195C352.689 91.5856 351.574 90.8508 350.347 90.3595L311.526 74.792C311.063 74.606 310.667 74.2827 310.393 73.8654C310.118 73.4482 309.978 72.9569 309.991 72.4577C310.004 71.9584 310.169 71.475 310.464 71.0723C310.76 70.6696 311.172 70.367 311.644 70.205L404.657 38.3846C405.091 38.228 405.56 38.1981 406.011 38.2984C406.461 38.3988 406.873 38.6253 407.199 38.9514C407.525 39.2775 407.752 39.6898 407.852 40.1399C407.952 40.5901 407.922 41.0595 407.766 41.4932L375.945 134.507C375.783 134.979 375.481 135.391 375.078 135.686C374.675 135.981 374.192 136.147 373.693 136.159C373.194 136.172 372.702 136.032 372.285 135.758C371.868 135.483 371.544 135.088 371.358 134.624L355.791 95.7934C355.297 94.5671 354.561 93.4534 353.625 92.5195ZM353.625 92.5195L407.183 38.9721" stroke="url(#paint1_linear_52_502)" stroke-width="6.12" stroke-linecap="round" stroke-linejoin="round"/>
<path d="M54.4801 61.9728H45.961V65.5475H52.9735V70.4508H45.961V78.6275H40.1675V56.4669H54.4801V61.9728ZM75.6409 78.6001H68.779L62.8759 69.0127V78.6001H57.0139L56.9865 56.5217H65.3687C70.135 56.5217 73.5453 59.7403 73.5453 63.6985C73.5453 66.4515 71.8881 68.7525 69.7241 69.7386L75.6409 78.6001ZM62.8485 61.7948V66.2187L65.2454 66.2323C66.4917 66.246 67.6285 65.3695 67.6285 64.0135C67.6285 62.6439 66.4781 61.7948 65.2454 61.7948H62.8485ZM92.0627 61.9728H83.5436V65.0545H90.5561V69.944H83.5436V73.1079H92.0627V78.6001H77.7501V56.5217H92.0627V61.9728ZM110.457 56.5217V62.0002H105.17V78.6001H99.2944V62.0002H93.9939V56.5217H110.457ZM127.262 61.9728H118.743V65.0545H125.756V69.944H118.743V73.1079H127.262V78.6001H112.95V56.5217H127.262V61.9728ZM161.626 65.9173C161.736 66.6569 161.804 67.3691 161.804 68.0677C161.804 74.7788 156.737 79.1206 150.464 79.1206C143.451 79.1206 138.151 73.8886 138.151 67.5883C138.151 61.288 143.465 55.9875 150.313 55.9875C153.121 56.0286 156.367 57.2202 158.188 58.9048L154.942 63.3561C153.71 62.2056 151.943 61.466 150.313 61.466C147.026 61.466 144.136 64.1642 144.136 67.5746C144.136 70.6699 146.615 73.6831 150.697 73.6831C153.367 73.6831 155.271 72.3957 155.353 70.2864H150.299V65.9173H161.626ZM183.348 78.6001H176.487L170.584 69.0127V78.6001H164.722L164.694 56.5217H173.076C177.843 56.5217 181.253 59.7403 181.253 63.6985C181.253 66.4515 179.596 68.7525 177.432 69.7386L183.348 78.6001ZM170.556 61.7948V66.2187L172.953 66.2323C174.199 66.246 175.336 65.3695 175.336 64.0135C175.336 62.6439 174.186 61.7948 172.953 61.7948H170.556ZM200.113 50.0844L196.853 54.7001H193.169L195.524 50.0844H200.113ZM200.715 78.6001L199.606 76.0252H191.361L190.238 78.6001H183.828L194.086 56.2478H196.867L207.139 78.6001H200.715ZM193.21 71.7383H197.743L195.483 66.5063L193.21 71.7383ZM224.465 56.5217V62.0002H219.178V78.6001H213.302V62.0002H208.002V56.5217H224.465ZM226.957 78.6001V56.5217H232.819V78.6001H226.957ZM243.544 78.9014C239.914 78.9014 236.613 77.299 235.504 74.861L239.051 71.3822C239.969 72.7381 241.681 73.5599 243.53 73.5599C244.776 73.5599 245.995 73.1079 245.995 72.2039C245.995 71.0671 243.735 70.0673 241.571 69.1086C238.777 67.9033 236.381 66.068 236.381 62.7398C236.381 58.9185 240.01 56.193 244.201 56.193C247.57 56.193 250.2 57.7817 251.063 59.9594L247.68 63.2192C247.023 62.055 245.324 61.5482 244.27 61.5482C243.064 61.5482 242.201 62.1646 242.201 62.9178C242.201 63.9314 243.763 64.2601 246.146 65.2599C249.597 66.7117 251.885 68.8209 251.885 72.0807C251.885 76.2854 247.968 78.9014 243.544 78.9014Z" fill="#292929"/>
<path d="M39.4121 112.5V99.1191H44.4673C47.2231 99.1191 49.5225 101.194 49.5225 103.809C49.5225 106.391 47.2729 108.557 44.4673 108.557H42.9648V112.5H39.4121ZM44.4673 105.287C45.4219 105.295 46.0942 104.647 46.0942 103.826C46.0942 103.012 45.4136 102.398 44.4673 102.398H42.9648V105.278L44.4673 105.287ZM57.79 112.5L57.1177 110.939H52.1206L51.4399 112.5H47.5552L53.7725 98.9531H55.4575L61.6831 112.5H57.79ZM53.2412 108.341H55.9888L54.6191 105.17L53.2412 108.341ZM74.3252 112.5H70.1665L66.5889 106.689V112.5H63.0361L63.0195 99.1191H68.0996C70.9883 99.1191 73.0552 101.07 73.0552 103.469C73.0552 105.137 72.0508 106.532 70.7393 107.129L74.3252 112.5ZM66.5723 102.315V104.996L68.0249 105.004C68.7803 105.013 69.4692 104.481 69.4692 103.66C69.4692 102.83 68.772 102.315 68.0249 102.315H66.5723ZM84.8506 112.5L84.1782 110.939H79.1812L78.5005 112.5H74.6157L80.833 98.9531H82.5181L88.7437 112.5H84.8506ZM80.3018 108.341H83.0493L81.6797 105.17L80.3018 108.341ZM102 112.799C98.2231 112.799 94.6953 110.01 94.6953 105.81C94.6953 101.85 97.8994 98.8037 102.066 98.8037C103.793 98.8286 105.644 99.584 107.014 100.829L104.972 103.452C104.15 102.705 103.062 102.215 102.075 102.215C100.016 102.215 98.2979 103.784 98.2979 105.834C98.2979 107.91 100.091 109.437 102 109.437C103.121 109.437 104.125 108.906 104.988 108.134L107.014 110.832C105.735 111.994 104.034 112.799 102 112.799ZM114.7 112.84C110.542 112.84 107.362 109.811 107.362 105.826C107.362 101.809 110.55 98.7622 114.708 98.7622C118.867 98.7622 122.055 101.809 122.055 105.826C122.055 109.811 118.867 112.84 114.7 112.84ZM114.708 109.445C116.833 109.445 118.46 107.86 118.46 105.801C118.46 103.734 116.833 102.141 114.708 102.141C112.583 102.141 110.957 103.734 110.957 105.801C110.957 107.86 112.583 109.445 114.708 109.445ZM136.714 98.9946H138.142V112.5H134.589V107.196L130.986 112.276H130.961L127.351 107.196V112.5H123.798V98.9946H125.226L130.97 106.864L136.714 98.9946ZM140.466 112.5V99.1191H145.521C148.277 99.1191 150.576 101.194 150.576 103.809C150.576 106.391 148.327 108.557 145.521 108.557H144.019V112.5H140.466ZM145.521 105.287C146.476 105.295 147.148 104.647 147.148 103.826C147.148 103.012 146.467 102.398 145.521 102.398H144.019V105.278L145.521 105.287ZM163.393 112.5H159.234L155.656 106.689V112.5H152.104L152.087 99.1191H157.167C160.056 99.1191 162.123 101.07 162.123 103.469C162.123 105.137 161.118 106.532 159.807 107.129L163.393 112.5ZM155.64 102.315V104.996L157.092 105.004C157.848 105.013 158.537 104.481 158.537 103.66C158.537 102.83 157.839 102.315 157.092 102.315H155.64ZM173.918 112.5L173.246 110.939H168.249L167.568 112.5H163.683L169.9 98.9531H171.585L177.811 112.5H173.918ZM169.369 108.341H172.117L170.747 105.17L169.369 108.341ZM182.908 112.683C180.708 112.683 178.708 111.711 178.035 110.234L180.185 108.125C180.741 108.947 181.779 109.445 182.899 109.445C183.655 109.445 184.394 109.171 184.394 108.624C184.394 107.935 183.024 107.329 181.712 106.748C180.019 106.017 178.566 104.905 178.566 102.888C178.566 100.572 180.766 98.9199 183.306 98.9199C185.348 98.9199 186.942 99.8828 187.465 101.203L185.415 103.178C185.016 102.473 183.987 102.166 183.348 102.166C182.617 102.166 182.094 102.539 182.094 102.996C182.094 103.61 183.041 103.809 184.485 104.415C186.577 105.295 187.963 106.573 187.963 108.549C187.963 111.097 185.589 112.683 182.908 112.683ZM204.033 112.5L203.361 110.939H198.364L197.683 112.5H193.798L200.016 98.9531H201.701L207.926 112.5H204.033ZM199.484 108.341H202.232L200.862 105.17L199.484 108.341ZM214.741 112.799C210.964 112.799 207.437 110.01 207.437 105.81C207.437 101.85 210.641 98.8037 214.808 98.8037C216.534 98.8286 218.385 99.584 219.755 100.829L217.713 103.452C216.891 102.705 215.804 102.215 214.816 102.215C212.757 102.215 211.039 103.784 211.039 105.834C211.039 107.91 212.832 109.437 214.741 109.437C215.862 109.437 216.866 108.906 217.729 108.134L219.755 110.832C218.477 111.994 216.775 112.799 214.741 112.799ZM221.266 112.5V99.1191H224.818V112.5H221.266ZM240.059 98.9946H241.486V112.5H237.934V107.196L234.331 112.276H234.306L230.695 107.196V112.5H227.143V98.9946H228.57L234.314 106.864L240.059 98.9946ZM253.058 112.5L252.385 110.939H247.388L246.708 112.5H242.823L249.04 98.9531H250.725L256.951 112.5H253.058ZM248.509 108.341H251.256L249.887 105.17L248.509 108.341ZM43.7783 122.119C48.3271 122.103 51.1079 124.643 51.1079 128.826C51.1079 132.977 48.3271 135.5 43.7783 135.5H39.4121V122.127L43.7783 122.119ZM43.7202 132.155C46.0942 132.155 47.5469 130.893 47.5469 128.818C47.5469 126.718 46.0859 125.439 43.687 125.439H42.8735V132.155H43.7202ZM61.5337 125.423H56.3706V127.291H60.6206V130.254H56.3706V132.171H61.5337V135.5H52.8594V122.119H61.5337V125.423ZM80.0195 135.5H75.8608L72.2832 129.689V135.5H68.7305L68.7139 122.119H73.7939C76.6826 122.119 78.7495 124.07 78.7495 126.469C78.7495 128.137 77.7451 129.532 76.4336 130.129L80.0195 135.5ZM72.2666 125.315V127.996L73.7192 128.004C74.4746 128.013 75.1636 127.481 75.1636 126.66C75.1636 125.83 74.4663 125.315 73.7192 125.315H72.2666ZM90.5283 131.549C90.5283 133.541 89.0757 134.944 87.1582 135.467V137.368H84.3857V135.6C82.6343 135.342 81.1567 134.462 80.6006 133.234L82.7505 131.125C83.3066 131.947 84.3442 132.445 85.4648 132.445C86.2202 132.445 86.959 132.171 86.959 131.624C86.959 130.935 85.5894 130.329 84.2778 129.748C82.5845 129.017 81.1318 127.905 81.1318 125.888C81.1318 124.045 82.5347 122.617 84.3857 122.111V120.243H87.1582V122.053C88.5693 122.368 89.6235 123.173 90.0303 124.203L87.98 126.178C87.5815 125.473 86.5522 125.166 85.9131 125.166C85.1826 125.166 84.6597 125.539 84.6597 125.996C84.6597 126.61 85.606 126.809 87.0503 127.415C89.1421 128.295 90.5283 129.573 90.5283 131.549ZM97.3682 126.336C100.041 126.336 101.817 128.32 101.817 130.885C101.817 133.782 99.5513 135.708 96.5713 135.708C94.5625 135.708 92.6367 134.794 91.5742 132.711L94.4712 131.433C95.0107 132.105 95.5918 132.445 96.3389 132.445C97.2935 132.445 98.1235 131.906 98.1235 130.793C98.1235 129.731 97.335 129.225 96.2642 129.225C95.4175 129.225 94.355 129.532 93.832 130.063L92.23 129.191L93.2676 122.111H100.605V125.282H95.7661L95.5503 126.734C96.04 126.477 96.6709 126.336 97.3682 126.336ZM108.923 135.774C105.295 135.774 102.979 133.01 102.979 128.81C102.979 124.601 105.295 121.837 108.923 121.837C112.517 121.837 114.808 124.601 114.808 128.801C114.808 133.01 112.517 135.774 108.923 135.774ZM108.898 132.387C110.342 132.387 111.247 130.959 111.247 128.818C111.247 126.651 110.342 125.207 108.89 125.207C107.437 125.207 106.524 126.643 106.524 128.801C106.524 130.951 107.437 132.387 108.898 132.387ZM121.922 135.774C118.294 135.774 115.979 133.01 115.979 128.81C115.979 124.601 118.294 121.837 121.922 121.837C125.516 121.837 127.807 124.601 127.807 128.801C127.807 133.01 125.516 135.774 121.922 135.774ZM121.897 132.387C123.341 132.387 124.246 130.959 124.246 128.818C124.246 126.651 123.341 125.207 121.889 125.207C120.436 125.207 119.523 126.643 119.523 128.801C119.523 130.951 120.436 132.387 121.897 132.387ZM130.804 138.688C129.99 138.688 129.426 138.281 129.426 138.048C130.007 138.048 131.061 137.633 131.061 136.521C131.061 136.189 130.995 136.023 130.92 135.898C130.115 135.898 129.268 135.102 129.268 134.031C129.268 132.877 130.239 131.848 131.592 131.848C133.003 131.848 133.892 132.968 133.892 134.695C133.892 136.654 132.754 138.688 130.804 138.688ZM141.296 135.774C137.668 135.774 135.353 133.01 135.353 128.81C135.353 124.601 137.668 121.837 141.296 121.837C144.89 121.837 147.181 124.601 147.181 128.801C147.181 133.01 144.89 135.774 141.296 135.774ZM141.271 132.387C142.715 132.387 143.62 130.959 143.62 128.818C143.62 126.651 142.715 125.207 141.263 125.207C139.81 125.207 138.897 126.643 138.897 128.801C138.897 130.951 139.81 132.387 141.271 132.387ZM154.295 135.774C150.667 135.774 148.352 133.01 148.352 128.81C148.352 124.601 150.667 121.837 154.295 121.837C157.889 121.837 160.18 124.601 160.18 128.801C160.18 133.01 157.889 135.774 154.295 135.774ZM154.27 132.387C155.714 132.387 156.619 130.959 156.619 128.818C156.619 126.651 155.714 125.207 154.262 125.207C152.809 125.207 151.896 126.643 151.896 128.801C151.896 130.951 152.809 132.387 154.27 132.387Z" fill="#292929"/>
<defs>
<linearGradient id="paint0_linear_52_502" x1="0" y1="93.5" x2="456.45" y2="93.5" gradientUnits="userSpaceOnUse">
<stop stop-color="white"/>
<stop offset="1" stop-color="#EAAADC"/>
</linearGradient>
<linearGradient id="paint1_linear_52_502" x1="309.99" y1="87.2002" x2="407.91" y2="87.2002" gradientUnits="userSpaceOnUse">
<stop stop-color="#E40699"/>
<stop offset="1" stop-color="#9429FF"/>
</linearGradient>
</defs>
</svg>
