<svg width="57" height="58" viewBox="0 0 57 58" fill="none" xmlns="http://www.w3.org/2000/svg">
<path fill-rule="evenodd" clip-rule="evenodd" d="M23.3506 57.5839C23.3506 57.8612 23.4911 57.9999 23.7722 57.9999L38.8678 57.9167C42.1849 57.8612 45.1647 57.0569 47.8071 55.5036C50.4495 53.9504 52.5578 51.8701 54.1321 49.2629C55.7063 46.6002 56.4934 43.6602 56.4934 40.4427V16.5616C56.4934 13.5106 55.7344 10.737 54.2164 8.2407C52.6984 5.68894 50.6463 3.66418 48.0601 2.16642C45.5301 0.668648 42.719 -0.0525005 39.6268 0.00297169L23.8566 0.08618C23.6317 0.08618 23.5193 0.197126 23.5193 0.419018L23.4049 39.1687H33.6584L33.7235 10.0713L39.6268 9.9881C41.4259 9.93262 42.972 10.5706 44.2651 11.9019C45.6144 13.1778 46.2891 14.7033 46.2891 16.4784V40.4427C46.2891 42.4397 45.5582 44.1594 44.0965 45.6017C42.6909 47.044 40.948 47.7651 38.8678 47.7651H33.896V47.7663H23.3796L23.3506 57.5839Z" fill="white"/>
<path d="M0 47.7661H28.9999V57.9997H0V47.7661Z" fill="white"/>
<path d="M17.2825 38.426C17.2825 39.2938 17.0655 40.0892 16.6317 40.8123C16.1817 41.5194 15.5952 42.0898 14.8721 42.5237C14.1329 42.9415 13.3214 43.1504 12.4376 43.1504L11.3288 43.1504C11.2485 43.1504 11.2083 43.1102 11.2083 43.0299L11.2083 40.3302C11.2083 40.266 11.2485 40.2338 11.3288 40.2338L12.4376 40.2338C12.9679 40.2338 13.4258 40.0571 13.8115 39.7035C14.1811 39.35 14.3659 38.9242 14.3659 38.426C14.3659 37.9279 14.1731 37.5021 13.7874 37.1485C13.4017 36.795 12.9518 36.6182 12.4376 36.6182C11.843 36.6182 11.3288 37.0039 10.8949 37.7752C10.7503 38.0323 10.5253 38.4341 10.22 38.9804C9.91472 39.5268 9.62547 40.041 9.35229 40.5231C8.83808 41.4069 8.19531 42.0657 7.42399 42.4996C6.63659 42.9174 5.75279 43.1263 4.77256 43.1263C3.87269 43.1263 3.06922 42.9094 2.36218 42.4755C1.63906 42.0416 1.0686 41.4712 0.650804 40.7641C0.233004 40.041 0.0241034 39.2616 0.0241033 38.426C0.0241033 37.5744 0.241038 36.795 0.674907 36.088C1.09271 35.3648 1.66316 34.7944 2.38628 34.3766C3.09333 33.9427 3.88875 33.7258 4.77256 33.7258L6.74908 33.7258C6.81336 33.7258 6.84549 33.7579 6.84549 33.8222L6.84549 36.5218C6.84549 36.5861 6.81336 36.6182 6.74908 36.6182L4.77256 36.6423C4.21014 36.6424 3.75217 36.8191 3.39864 37.1726C3.04512 37.5262 2.86836 37.944 2.86836 38.426C2.86836 38.9242 3.06119 39.35 3.44685 39.7035C3.81644 40.0571 4.25835 40.2338 4.77256 40.2338C5.30285 40.2338 5.74475 40.1213 6.09827 39.8964C6.4518 39.6714 6.78925 39.2616 7.11064 38.6671C7.15884 38.5867 7.24723 38.4341 7.37578 38.2091C7.48826 37.9681 7.62485 37.711 7.78554 37.4378C7.93017 37.1646 8.05872 36.9236 8.17121 36.7147C8.28369 36.4897 8.356 36.3531 8.38814 36.3049C8.83808 35.5014 9.39247 34.8667 10.0513 34.4007C10.6941 33.9347 11.4895 33.7017 12.4376 33.7017C13.3535 33.7017 14.1811 33.9186 14.9203 34.3525C15.6434 34.7703 16.2219 35.3407 16.6558 36.0639C17.0736 36.7709 17.2825 37.5583 17.2825 38.426Z" fill="url(#paint0_linear_45_34)"/>
<path d="M17.0414 31.9289C17.0414 31.9932 17.0013 32.0253 16.9209 32.0253L0.361557 32.0012C0.29728 32.0012 0.265141 31.9611 0.265141 31.8807L0.265141 29.2052C0.265141 29.1248 0.29728 29.0847 0.361557 29.0847L6.91781 29.1088L6.9178 25.4932L0.361557 25.4932C0.29728 25.4932 0.265141 25.4611 0.265141 25.3968L0.265141 22.7212C0.265141 22.6409 0.297279 22.6007 0.361557 22.6007L16.9209 22.5525C17.0013 22.5525 17.0414 22.5927 17.0414 22.673L17.0414 25.3727C17.0414 25.453 17.0013 25.4932 16.9209 25.4932L9.83437 25.4932L9.83437 29.1088L16.9209 29.1088C17.0013 29.1088 17.0414 29.1409 17.0414 29.2052L17.0414 31.9289Z" fill="url(#paint1_linear_45_34)"/>
<path d="M17.2825 16.1262C17.2825 16.9939 17.0655 17.7894 16.6317 18.5125C16.1817 19.2195 15.5952 19.79 14.8721 20.2239C14.1329 20.6577 13.3214 20.8747 12.4376 20.8747L4.79667 20.8506C3.91286 20.8506 3.1094 20.6417 2.38628 20.2239C1.66316 19.79 1.08467 19.2115 0.650803 18.4884C0.216934 17.7653 -1.14404e-06 16.9779 -1.18126e-06 16.1262C-1.21919e-06 15.2585 0.216934 14.4711 0.650803 13.764C1.08467 13.057 1.66316 12.4946 2.38628 12.0768C3.1094 11.6429 3.91286 11.426 4.79667 11.426L12.4376 11.4018C13.3214 11.4018 14.1329 11.6188 14.8721 12.0527C15.5952 12.4705 16.1817 13.0409 16.6317 13.764C17.0655 14.4711 17.2825 15.2585 17.2825 16.1262ZM14.3659 16.1262C14.3659 15.6441 14.1731 15.2263 13.7874 14.8728C13.3857 14.5032 12.9357 14.3184 12.4376 14.3184L4.79667 14.3425C4.26638 14.3425 3.81644 14.5112 3.44685 14.8487C3.07726 15.1862 2.89246 15.612 2.89246 16.1262C2.89246 16.6244 3.07726 17.0502 3.44685 17.4037C3.80037 17.7572 4.25031 17.934 4.79667 17.934L12.4376 17.934C12.9679 17.934 13.4258 17.7572 13.8115 17.4037C14.1811 17.0502 14.3659 16.6244 14.3659 16.1262Z" fill="url(#paint2_linear_45_34)"/>
<path d="M17.0414 9.44868C17.0414 9.52903 17.0012 9.5692 16.9209 9.5692L0.361556 9.521C0.297279 9.521 0.26514 9.48886 0.26514 9.42458L0.26514 4.79664C0.26514 3.31827 0.715079 2.15325 1.61496 1.30158C2.51483 0.433845 3.73609 -2.68662e-05 5.27874 -2.69336e-05C6.41966 -2.69835e-05 7.40792 0.224945 8.24352 0.674881C9.07912 1.12482 9.72189 1.71135 10.1718 2.43446C10.6218 3.15758 10.8467 3.94497 10.8467 4.79664L10.8467 6.62853L16.9209 6.62853C17.0012 6.62853 17.0414 6.6687 17.0414 6.74905L17.0414 9.44868ZM7.93017 6.62853L7.93017 4.79664C7.93017 4.28242 7.68913 3.84052 7.20705 3.47093C6.7089 3.08527 6.06613 2.89244 5.27874 2.89244C4.65204 2.89244 4.13783 3.06116 3.73609 3.39862C3.33436 3.73607 3.1335 4.20208 3.1335 4.79664L3.1576 6.62853L7.93017 6.62853Z" fill="url(#paint3_linear_45_34)"/>
<defs>
<linearGradient id="paint0_linear_45_34" x1="8.64123" y1="-2.70806e-05" x2="8.64123" y2="43.1504" gradientUnits="userSpaceOnUse">
<stop stop-color="#9429FF"/>
<stop offset="1" stop-color="#E40699"/>
</linearGradient>
<linearGradient id="paint1_linear_45_34" x1="8.64123" y1="-2.70806e-05" x2="8.64123" y2="43.1504" gradientUnits="userSpaceOnUse">
<stop stop-color="#9429FF"/>
<stop offset="1" stop-color="#E40699"/>
</linearGradient>
<linearGradient id="paint2_linear_45_34" x1="8.64123" y1="-2.70806e-05" x2="8.64123" y2="43.1504" gradientUnits="userSpaceOnUse">
<stop stop-color="#9429FF"/>
<stop offset="1" stop-color="#E40699"/>
</linearGradient>
<linearGradient id="paint3_linear_45_34" x1="8.64123" y1="-2.70806e-05" x2="8.64123" y2="43.1504" gradientUnits="userSpaceOnUse">
<stop stop-color="#9429FF"/>
<stop offset="1" stop-color="#E40699"/>
</linearGradient>
</defs>
</svg>
